<svg xmlns="http://www.w3.org/2000/svg" viewBox="0 0 1200 720" role="img" aria-labelledby="title desc">
  <title id="title">AGFusion</title>
  <desc id="desc">AGFusion purple, indigo and cyan fusion mark with readable wordmark and tagline</desc>
  <defs>
    <linearGradient id="mark" x1="0" y1="0" x2="1" y2="1">
      <stop offset="0" stop-color="#7C3AED"/>
      <stop offset="0.45" stop-color="#4F46E5"/>
      <stop offset="1" stop-color="#22D3EE"/>
    </linearGradient>
    <linearGradient id="word" x1="0" y1="0" x2="1" y2="0">
      <stop offset="0" stop-color="#6D28D9"/>
      <stop offset="0.45" stop-color="#2563EB"/>
      <stop offset="1" stop-color="#0891B2"/>
    </linearGradient>
  </defs>
  <g transform="translate(165 45)">
    <path d="M125 410 L285 110 Q300 82 330 82 H410 Q440 82 455 110 L615 410 H520 L410 205 Q402 190 385 190 H355 Q338 190 330 205 L220 410 Z" fill="url(#mark)"/>
    <path d="M82 410 Q310 185 535 410 H450 Q310 315 170 410 Z" fill="url(#mark)" opacity="0.98"/>
    <path d="M176 365 Q310 270 444 365" fill="none" stroke="#A5F3FC" stroke-width="9" stroke-linecap="round" opacity="0.9"/>
  </g>
  <g font-family="Sora, Inter, Arial, sans-serif" font-weight="700" letter-spacing="-4">
    <text x="130" y="575" font-size="112" fill="url(#word)">AG</text>
    <text x="345" y="575" font-size="112" fill="#172033">Fusion</text>
  </g>
  <path d="M132 616 H1068" stroke="url(#word)" stroke-width="2" opacity="0.24"/>
  <text x="600" y="655" text-anchor="middle" font-family="Inter, Arial, sans-serif" font-size="18" font-weight="700" letter-spacing="7" fill="#526173">INTELLIGENT MONEY · SEAMLESSLY</text>
</svg>
